# xmcd CD database file
#
# Track frame offsets:
#	150
#	17742
#	34820
#
# Disc length: 738 seconds
#
# Revision: 0
# Processed by: cddbd v1.5.2PL0 Copyright (c) Steve Scherf et al.
# Submitted via: CDex 1.51
#
DISCID=1b02e003
DTITLE=LeAnn Rimes - This Love
DYEAR=2003
DGENRE=Country
TTITLE0=This Love
TTITLE1=The Right Kind of Wrong
TTITLE2=Please Remember
EXTD=YEAR: 2003
EXTT0=
EXTT1=
EXTT2=
PLAYORDER=
